<svg width="156" height="48" viewBox="0 0 156 48" fill="none" xmlns="http://www.w3.org/2000/svg">
<g id="btn/btn">
<rect width="156" height="48" rx="8" fill="#FEBF32"/>
<path id="text" d="M38.452 27.872H34.004L33.268 30H30.916L34.932 18.816H37.54L41.556 30H39.188L38.452 27.872ZM37.844 26.08L36.228 21.408L34.612 26.08H37.844ZM42.4811 25.536C42.4811 24.64 42.6571 23.8453 43.0091 23.152C43.3718 22.4587 43.8625 21.9253 44.4811 21.552C45.0998 21.1787 45.7878 20.992 46.5451 20.992C47.1211 20.992 47.6705 21.12 48.1931 21.376C48.7158 21.6213 49.1318 21.952 49.4411 22.368V18.16H51.7131V30H49.4411V28.688C49.1638 29.1253 48.7745 29.4773 48.2731 29.744C47.7718 30.0107 47.1905 30.144 46.5291 30.144C45.7825 30.144 45.0998 29.952 44.4811 29.568C43.8625 29.184 43.3718 28.6453 43.0091 27.952C42.6571 27.248 42.4811 26.4427 42.4811 25.536ZM49.4571 25.568C49.4571 25.024 49.3505 24.56 49.1371 24.176C48.9238 23.7813 48.6358 23.4827 48.2731 23.28C47.9105 23.0667 47.5211 22.96 47.1051 22.96C46.6891 22.96 46.3051 23.0613 45.9531 23.264C45.6011 23.4667 45.3131 23.7653 45.0891 24.16C44.8758 24.544 44.7691 25.0027 44.7691 25.536C44.7691 26.0693 44.8758 26.5387 45.0891 26.944C45.3131 27.3387 45.6011 27.6427 45.9531 27.856C46.3158 28.0693 46.6998 28.176 47.1051 28.176C47.5211 28.176 47.9105 28.0747 48.2731 27.872C48.6358 27.6587 48.9238 27.36 49.1371 26.976C49.3505 26.5813 49.4571 26.112 49.4571 25.568ZM53.3249 25.536C53.3249 24.64 53.5009 23.8453 53.8529 23.152C54.2155 22.4587 54.7062 21.9253 55.3249 21.552C55.9435 21.1787 56.6315 20.992 57.3889 20.992C57.9649 20.992 58.5142 21.12 59.0369 21.376C59.5595 21.6213 59.9755 21.952 60.2849 22.368V18.16H62.5569V30H60.2849V28.688C60.0075 29.1253 59.6182 29.4773 59.1169 29.744C58.6155 30.0107 58.0342 30.144 57.3729 30.144C56.6262 30.144 55.9435 29.952 55.3249 29.568C54.7062 29.184 54.2155 28.6453 53.8529 27.952C53.5009 27.248 53.3249 26.4427 53.3249 25.536ZM60.3009 25.568C60.3009 25.024 60.1942 24.56 59.9809 24.176C59.7675 23.7813 59.4795 23.4827 59.1169 23.28C58.7542 23.0667 58.3649 22.96 57.9489 22.96C57.5329 22.96 57.1489 23.0613 56.7969 23.264C56.4449 23.4667 56.1569 23.7653 55.9329 24.16C55.7195 24.544 55.6129 25.0027 55.6129 25.536C55.6129 26.0693 55.7195 26.5387 55.9329 26.944C56.1569 27.3387 56.4449 27.6427 56.7969 27.856C57.1595 28.0693 57.5435 28.176 57.9489 28.176C58.3649 28.176 58.7542 28.0747 59.1169 27.872C59.4795 27.6587 59.7675 27.36 59.9809 26.976C60.1942 26.5813 60.3009 26.112 60.3009 25.568ZM79.5651 21.008C80.6531 21.008 81.5278 21.344 82.1891 22.016C82.8611 22.6773 83.1971 23.6053 83.1971 24.8V30H80.9571V25.104C80.9571 24.4107 80.7811 23.8827 80.4291 23.52C80.0771 23.1467 79.5971 22.96 78.9891 22.96C78.3811 22.96 77.8958 23.1467 77.5331 23.52C77.1811 23.8827 77.0051 24.4107 77.0051 25.104V30H74.7651V25.104C74.7651 24.4107 74.5891 23.8827 74.2371 23.52C73.8851 23.1467 73.4051 22.96 72.7971 22.96C72.1785 22.96 71.6878 23.1467 71.3251 23.52C70.9731 23.8827 70.7971 24.4107 70.7971 25.104V30H68.5571V21.136H70.7971V22.208C71.0851 21.8347 71.4531 21.5413 71.9011 21.328C72.3598 21.1147 72.8611 21.008 73.4051 21.008C74.0985 21.008 74.7171 21.1573 75.2611 21.456C75.8051 21.744 76.2265 22.16 76.5251 22.704C76.8131 22.192 77.2291 21.7813 77.7731 21.472C78.3278 21.1627 78.9251 21.008 79.5651 21.008ZM89.2588 30.144C88.4054 30.144 87.6374 29.9573 86.9548 29.584C86.2721 29.2 85.7334 28.6613 85.3388 27.968C84.9548 27.2747 84.7628 26.4747 84.7628 25.568C84.7628 24.6613 84.9601 23.8613 85.3548 23.168C85.7601 22.4747 86.3094 21.9413 87.0028 21.568C87.6961 21.184 88.4694 20.992 89.3228 20.992C90.1761 20.992 90.9494 21.184 91.6428 21.568C92.3361 21.9413 92.8801 22.4747 93.2748 23.168C93.6801 23.8613 93.8828 24.6613 93.8828 25.568C93.8828 26.4747 93.6748 27.2747 93.2587 27.968C92.8534 28.6613 92.2988 29.2 91.5948 29.584C90.9014 29.9573 90.1228 30.144 89.2588 30.144ZM89.2588 28.192C89.6641 28.192 90.0428 28.096 90.3948 27.904C90.7574 27.7013 91.0454 27.4027 91.2588 27.008C91.4721 26.6133 91.5788 26.1333 91.5788 25.568C91.5788 24.7253 91.3548 24.08 90.9068 23.632C90.4694 23.1733 89.9308 22.944 89.2908 22.944C88.6508 22.944 88.1121 23.1733 87.6748 23.632C87.2481 24.08 87.0348 24.7253 87.0348 25.568C87.0348 26.4107 87.2428 27.0613 87.6588 27.52C88.0854 27.968 88.6188 28.192 89.2588 28.192ZM100.438 21.008C101.494 21.008 102.347 21.344 102.998 22.016C103.649 22.6773 103.974 23.6053 103.974 24.8V30H101.734V25.104C101.734 24.4 101.558 23.8613 101.206 23.488C100.854 23.104 100.374 22.912 99.7659 22.912C99.1472 22.912 98.6565 23.104 98.2939 23.488C97.9419 23.8613 97.7659 24.4 97.7659 25.104V30H95.5259V21.136H97.7659V22.24C98.0645 21.856 98.4432 21.5573 98.9019 21.344C99.3712 21.12 99.8832 21.008 100.438 21.008ZM114.344 25.376C114.344 25.696 114.323 25.984 114.28 26.24H107.8C107.853 26.88 108.077 27.3813 108.472 27.744C108.867 28.1067 109.352 28.288 109.928 28.288C110.76 28.288 111.352 27.9307 111.704 27.216H114.12C113.864 28.0693 113.373 28.7733 112.648 29.328C111.923 29.872 111.032 30.144 109.976 30.144C109.123 30.144 108.355 29.9573 107.672 29.584C107 29.2 106.472 28.6613 106.088 27.968C105.715 27.2747 105.528 26.4747 105.528 25.568C105.528 24.6507 105.715 23.8453 106.088 23.152C106.461 22.4587 106.984 21.9253 107.656 21.552C108.328 21.1787 109.101 20.992 109.976 20.992C110.819 20.992 111.571 21.1733 112.232 21.536C112.904 21.8987 113.421 22.416 113.784 23.088C114.157 23.7493 114.344 24.512 114.344 25.376ZM112.024 24.736C112.013 24.16 111.805 23.7013 111.4 23.36C110.995 23.008 110.499 22.832 109.912 22.832C109.357 22.832 108.888 23.0027 108.504 23.344C108.131 23.6747 107.901 24.1387 107.816 24.736H112.024ZM124.459 21.136L118.971 34.192H116.587L118.507 29.776L114.955 21.136H117.467L119.755 27.328L122.075 21.136H124.459Z" fill="black"/>
</g>
</svg>
