<svg width="82" height="18" viewBox="0 0 82 18" fill="none" xmlns="http://www.w3.org/2000/svg">
<path id="Know More" d="M6.825 14L2.52 9.23V14H1.155V3.545H2.52V8.39L6.84 3.545H8.565L3.825 8.78L8.61 14H6.825ZM14.1395 5.63C15.1395 5.63 15.9495 5.935 16.5695 6.545C17.1895 7.145 17.4995 8.015 17.4995 9.155V14H16.1495V9.35C16.1495 8.53 15.9445 7.905 15.5345 7.475C15.1245 7.035 14.5645 6.815 13.8545 6.815C13.1345 6.815 12.5595 7.04 12.1295 7.49C11.7095 7.94 11.4995 8.595 11.4995 9.455V14H10.1345V5.78H11.4995V6.95C11.7695 6.53 12.1345 6.205 12.5945 5.975C13.0645 5.745 13.5795 5.63 14.1395 5.63ZM23.3142 14.135C22.5442 14.135 21.8442 13.96 21.2142 13.61C20.5942 13.26 20.1042 12.765 19.7442 12.125C19.3942 11.475 19.2192 10.725 19.2192 9.875C19.2192 9.035 19.3992 8.295 19.7592 7.655C20.1292 7.005 20.6292 6.51 21.2592 6.17C21.8892 5.82 22.5942 5.645 23.3742 5.645C24.1542 5.645 24.8592 5.82 25.4892 6.17C26.1192 6.51 26.6142 7 26.9742 7.64C27.3442 8.28 27.5292 9.025 27.5292 9.875C27.5292 10.725 27.3392 11.475 26.9592 12.125C26.5892 12.765 26.0842 13.26 25.4442 13.61C24.8042 13.96 24.0942 14.135 23.3142 14.135ZM23.3142 12.935C23.8042 12.935 24.2642 12.82 24.6942 12.59C25.1242 12.36 25.4692 12.015 25.7292 11.555C25.9992 11.095 26.1342 10.535 26.1342 9.875C26.1342 9.215 26.0042 8.655 25.7442 8.195C25.4842 7.735 25.1442 7.395 24.7242 7.175C24.3042 6.945 23.8492 6.83 23.3592 6.83C22.8592 6.83 22.3992 6.945 21.9792 7.175C21.5692 7.395 21.2392 7.735 20.9892 8.195C20.7392 8.655 20.6142 9.215 20.6142 9.875C20.6142 10.545 20.7342 11.11 20.9742 11.57C21.2242 12.03 21.5542 12.375 21.9642 12.605C22.3742 12.825 22.8242 12.935 23.3142 12.935ZM40.2739 5.78L37.7089 14H36.2989L34.3189 7.475L32.3389 14H30.9289L28.3489 5.78H29.7439L31.6339 12.68L33.6739 5.78H35.0689L37.0639 12.695L38.9239 5.78H40.2739ZM56.2327 3.62V14H54.8677V6.26L51.4177 14H50.4577L46.9927 6.245V14H45.6277V3.62H47.0977L50.9377 12.2L54.7777 3.62H56.2327ZM62.1326 14.135C61.3626 14.135 60.6626 13.96 60.0326 13.61C59.4126 13.26 58.9226 12.765 58.5626 12.125C58.2126 11.475 58.0376 10.725 58.0376 9.875C58.0376 9.035 58.2176 8.295 58.5776 7.655C58.9476 7.005 59.4476 6.51 60.0776 6.17C60.7076 5.82 61.4126 5.645 62.1926 5.645C62.9726 5.645 63.6776 5.82 64.3076 6.17C64.9376 6.51 65.4326 7 65.7926 7.64C66.1626 8.28 66.3476 9.025 66.3476 9.875C66.3476 10.725 66.1576 11.475 65.7776 12.125C65.4076 12.765 64.9026 13.26 64.2626 13.61C63.6226 13.96 62.9126 14.135 62.1326 14.135ZM62.1326 12.935C62.6226 12.935 63.0826 12.82 63.5126 12.59C63.9426 12.36 64.2876 12.015 64.5476 11.555C64.8176 11.095 64.9526 10.535 64.9526 9.875C64.9526 9.215 64.8226 8.655 64.5626 8.195C64.3026 7.735 63.9626 7.395 63.5426 7.175C63.1226 6.945 62.6676 6.83 62.1776 6.83C61.6776 6.83 61.2176 6.945 60.7976 7.175C60.3876 7.395 60.0576 7.735 59.8076 8.195C59.5576 8.655 59.4326 9.215 59.4326 9.875C59.4326 10.545 59.5526 11.11 59.7926 11.57C60.0426 12.03 60.3726 12.375 60.7826 12.605C61.1926 12.825 61.6426 12.935 62.1326 12.935ZM69.5073 7.115C69.7473 6.645 70.0873 6.28 70.5273 6.02C70.9773 5.76 71.5223 5.63 72.1623 5.63V7.04H71.8023C70.2723 7.04 69.5073 7.87 69.5073 9.53V14H68.1423V5.78H69.5073V7.115ZM81.238 9.575C81.238 9.835 81.223 10.11 81.193 10.4H74.623C74.673 11.21 74.948 11.845 75.448 12.305C75.958 12.755 76.573 12.98 77.293 12.98C77.883 12.98 78.373 12.845 78.763 12.575C79.163 12.295 79.443 11.925 79.603 11.465H81.073C80.853 12.255 80.413 12.9 79.753 13.4C79.093 13.89 78.273 14.135 77.293 14.135C76.513 14.135 75.813 13.96 75.193 13.61C74.583 13.26 74.103 12.765 73.753 12.125C73.403 11.475 73.228 10.725 73.228 9.875C73.228 9.025 73.398 8.28 73.738 7.64C74.078 7 74.553 6.51 75.163 6.17C75.783 5.82 76.493 5.645 77.293 5.645C78.073 5.645 78.763 5.815 79.363 6.155C79.963 6.495 80.423 6.965 80.743 7.565C81.073 8.155 81.238 8.825 81.238 9.575ZM79.828 9.29C79.828 8.77 79.713 8.325 79.483 7.955C79.253 7.575 78.938 7.29 78.538 7.1C78.148 6.9 77.713 6.8 77.233 6.8C76.543 6.8 75.953 7.02 75.463 7.46C74.983 7.9 74.708 8.51 74.638 9.29H79.828Z" fill="#FEBF32"/>
</svg>
