<svg width="128" height="18" viewBox="0 0 128 18" fill="none" xmlns="http://www.w3.org/2000/svg">
<path id="caption" d="M6.66 14L4.17 9.725H2.52V14H1.155V3.545H4.53C5.32 3.545 5.985 3.68 6.525 3.95C7.075 4.22 7.485 4.585 7.755 5.045C8.025 5.505 8.16 6.03 8.16 6.62C8.16 7.34 7.95 7.975 7.53 8.525C7.12 9.075 6.5 9.44 5.67 9.62L8.295 14H6.66ZM2.52 8.63H4.53C5.27 8.63 5.825 8.45 6.195 8.09C6.565 7.72 6.75 7.23 6.75 6.62C6.75 6 6.565 5.52 6.195 5.18C5.835 4.84 5.28 4.67 4.53 4.67H2.52V8.63ZM16.716 3.545V4.655H13.866V14H12.501V4.655H9.63598V3.545H16.716ZM26.3162 6.575C26.0262 5.965 25.6062 5.495 25.0562 5.165C24.5062 4.825 23.8662 4.655 23.1362 4.655C22.4062 4.655 21.7462 4.825 21.1562 5.165C20.5762 5.495 20.1162 5.975 19.7762 6.605C19.4462 7.225 19.2812 7.945 19.2812 8.765C19.2812 9.585 19.4462 10.305 19.7762 10.925C20.1162 11.545 20.5762 12.025 21.1562 12.365C21.7462 12.695 22.4062 12.86 23.1362 12.86C24.1562 12.86 24.9962 12.555 25.6562 11.945C26.3162 11.335 26.7012 10.51 26.8112 9.47H22.6412V8.36H28.2662V9.41C28.1862 10.27 27.9162 11.06 27.4562 11.78C26.9962 12.49 26.3912 13.055 25.6412 13.475C24.8912 13.885 24.0562 14.09 23.1362 14.09C22.1662 14.09 21.2812 13.865 20.4812 13.415C19.6812 12.955 19.0462 12.32 18.5762 11.51C18.1162 10.7 17.8862 9.785 17.8862 8.765C17.8862 7.745 18.1162 6.83 18.5762 6.02C19.0462 5.2 19.6812 4.565 20.4812 4.115C21.2812 3.655 22.1662 3.425 23.1362 3.425C24.2462 3.425 25.2262 3.7 26.0762 4.25C26.9362 4.8 27.5612 5.575 27.9512 6.575H26.3162ZM33.386 14.105C32.696 14.105 32.076 13.985 31.526 13.745C30.986 13.495 30.561 13.155 30.251 12.725C29.941 12.285 29.781 11.78 29.771 11.21H31.226C31.276 11.7 31.476 12.115 31.826 12.455C32.186 12.785 32.706 12.95 33.386 12.95C34.036 12.95 34.546 12.79 34.916 12.47C35.296 12.14 35.486 11.72 35.486 11.21C35.486 10.81 35.376 10.485 35.156 10.235C34.936 9.985 34.661 9.795 34.331 9.665C34.001 9.535 33.556 9.395 32.996 9.245C32.306 9.065 31.751 8.885 31.331 8.705C30.921 8.525 30.566 8.245 30.266 7.865C29.976 7.475 29.831 6.955 29.831 6.305C29.831 5.735 29.976 5.23 30.266 4.79C30.556 4.35 30.961 4.01 31.481 3.77C32.011 3.53 32.616 3.41 33.296 3.41C34.276 3.41 35.076 3.655 35.696 4.145C36.326 4.635 36.681 5.285 36.761 6.095H35.261C35.211 5.695 35.001 5.345 34.631 5.045C34.261 4.735 33.771 4.58 33.161 4.58C32.591 4.58 32.126 4.73 31.766 5.03C31.406 5.32 31.226 5.73 31.226 6.26C31.226 6.64 31.331 6.95 31.541 7.19C31.761 7.43 32.026 7.615 32.336 7.745C32.656 7.865 33.101 8.005 33.671 8.165C34.361 8.355 34.916 8.545 35.336 8.735C35.756 8.915 36.116 9.2 36.416 9.59C36.716 9.97 36.866 10.49 36.866 11.15C36.866 11.66 36.731 12.14 36.461 12.59C36.191 13.04 35.791 13.405 35.261 13.685C34.731 13.965 34.106 14.105 33.386 14.105ZM43.9747 -0.13L39.8647 16.55H38.5147L42.6097 -0.13H43.9747ZM54.2285 14H52.8635L47.3735 5.675V14H46.0085V3.53H47.3735L52.8635 11.84V3.53H54.2285V14ZM57.9204 4.655V8.15H61.7304V9.275H57.9204V12.875H62.1804V14H56.5554V3.53H62.1804V4.655H57.9204ZM70.1558 3.545V4.655H65.6108V8.18H69.3008V9.29H65.6108V14H64.2458V3.545H70.1558ZM78.2394 3.545V4.655H75.3894V14H74.0244V4.655H71.1594V3.545H78.2394ZM85.0196 -0.13L80.9096 16.55H79.5596L83.6546 -0.13H85.0196ZM88.4184 3.545V14H87.0534V3.545H88.4184ZM101.35 3.62V14H99.9848V6.26L96.5348 14H95.5748L92.1098 6.245V14H90.7448V3.62H92.2148L96.0548 12.2L99.8948 3.62H101.35ZM110.655 6.605C110.655 7.475 110.355 8.2 109.755 8.78C109.165 9.35 108.26 9.635 107.04 9.635H105.03V14H103.665V3.545H107.04C108.22 3.545 109.115 3.83 109.725 4.4C110.345 4.97 110.655 5.705 110.655 6.605ZM107.04 8.51C107.8 8.51 108.36 8.345 108.72 8.015C109.08 7.685 109.26 7.215 109.26 6.605C109.26 5.315 108.52 4.67 107.04 4.67H105.03V8.51H107.04ZM115.666 14.105C114.976 14.105 114.356 13.985 113.806 13.745C113.266 13.495 112.841 13.155 112.531 12.725C112.221 12.285 112.061 11.78 112.051 11.21H113.506C113.556 11.7 113.756 12.115 114.106 12.455C114.466 12.785 114.986 12.95 115.666 12.95C116.316 12.95 116.826 12.79 117.196 12.47C117.576 12.14 117.766 11.72 117.766 11.21C117.766 10.81 117.656 10.485 117.436 10.235C117.216 9.985 116.941 9.795 116.611 9.665C116.281 9.535 115.836 9.395 115.276 9.245C114.586 9.065 114.031 8.885 113.611 8.705C113.201 8.525 112.846 8.245 112.546 7.865C112.256 7.475 112.111 6.955 112.111 6.305C112.111 5.735 112.256 5.23 112.546 4.79C112.836 4.35 113.241 4.01 113.761 3.77C114.291 3.53 114.896 3.41 115.576 3.41C116.556 3.41 117.356 3.655 117.976 4.145C118.606 4.635 118.961 5.285 119.041 6.095H117.541C117.491 5.695 117.281 5.345 116.911 5.045C116.541 4.735 116.051 4.58 115.441 4.58C114.871 4.58 114.406 4.73 114.046 5.03C113.686 5.32 113.506 5.73 113.506 6.26C113.506 6.64 113.611 6.95 113.821 7.19C114.041 7.43 114.306 7.615 114.616 7.745C114.936 7.865 115.381 8.005 115.951 8.165C116.641 8.355 117.196 8.545 117.616 8.735C118.036 8.915 118.396 9.2 118.696 9.59C118.996 9.97 119.146 10.49 119.146 11.15C119.146 11.66 119.011 12.14 118.741 12.59C118.471 13.04 118.071 13.405 117.541 13.685C117.011 13.965 116.386 14.105 115.666 14.105ZM123.825 3.41C124.815 3.41 125.615 3.69 126.225 4.25C126.835 4.81 127.14 5.56 127.14 6.5C127.14 7.55 126.815 8.33 126.165 8.84C125.515 9.34 124.635 9.59 123.525 9.59L123.48 11.015H122.295L122.235 8.645H122.67C123.66 8.645 124.435 8.495 124.995 8.195C125.555 7.895 125.835 7.33 125.835 6.5C125.835 5.9 125.655 5.425 125.295 5.075C124.935 4.725 124.45 4.55 123.84 4.55C123.22 4.55 122.73 4.72 122.37 5.06C122.02 5.39 121.845 5.845 121.845 6.425H120.555C120.555 5.825 120.69 5.3 120.96 4.85C121.23 4.39 121.61 4.035 122.1 3.785C122.6 3.535 123.175 3.41 123.825 3.41ZM122.88 14.09C122.62 14.09 122.4 14 122.22 13.82C122.04 13.64 121.95 13.42 121.95 13.16C121.95 12.9 122.04 12.68 122.22 12.5C122.4 12.32 122.62 12.23 122.88 12.23C123.13 12.23 123.34 12.32 123.51 12.5C123.69 12.68 123.78 12.9 123.78 13.16C123.78 13.42 123.69 13.64 123.51 13.82C123.34 14 123.13 14.09 122.88 14.09Z" fill="#ABAFC4"/>
</svg>
